{"title":"​The X-Files S07 Season 7 720p 5.1Ch BluRay ReEnc-DeeJayAhmed","uid":13159002,"size":8338749175,"categoryP":"video","categoryS":"hd___tv_shows","magnet":"?xt=urn:btih:ca1fe51ae6d87dd5394405bc0c964cb3461450c7&amp;dn=%E2%80%8BThe+X-Files+S07+Season+7+720p+5.1Ch+BluRay+ReEnc-DeeJayAhmed&amp;tr=udp%3A%2F%2Ftracker.leechers-paradise.org%3A6969&amp;tr=udp%3A%2F%2Fzer0day.ch%3A1337&amp;tr=udp%3A%2F%2Fopen.demonii.com%3A1337&amp;tr=udp%3A%2F%2Ftracker.coppersurfer.tk%3A6969&amp;tr=udp%3A%2F%2Fexodus.desync.com%3A6969","seeders":9,"leechers":4,"uploader":"DeeJayPirate","files":46,"time":1452128587,"description":"DeeJayAhmed  \nhttps://www.DeeJayAhmed.com\r\nKeep Seeding!!=)) \r\nDo Comment On The A/V Quality Considering The Size Of The File..!\r\n\r\nVideo \r\nID : 1 \r\nFormat : AVC \r\nFormat/Info : Advanced Video Codec \r\nFormat profile :    \r\nFormat settings, CABAC : Yes \r\nFormat settings, ReFrames : 8 frames \r\nCodec ID : V_MPEG4/ISO/AVC \r\nDuration : 43mn 49s \r\nBit rate : 948 Kbps \r\nWidth : 1 280 pixels \r\nHeight : 720 pixels \r\nDisplay aspect ratio : 16:9 \r\nFrame rate mode : Constant \r\nFrame rate : 23.976 (24000/1001) fps \r\nColor space : YUV \r\nChroma subsampling : 4:2:0 \r\nBit depth : 8 bits \r\nScan type : Progressive \r\nBits/(Pixel*Frame) : 0.043 \r\nStream size : 297 MiB (83%) \r\nDefault : Yes \r\nForced : No \r\n\r\nAudio \r\nID : 2 \r\nFormat : AAC \r\nFormat/Info : Advanced Audio Codec \r\nFormat profile : HE-AAC / LC \r\nCodec ID : A_AAC \r\nDuration : 43mn 49s \r\nBit rate : 192 Kbps \r\nChannel(s) : 6 channels \r\nChannel positions : Front: L C R, Side: L R, LFE \r\nSampling rate : 48.0 KHz / 24.0 KHz \r\nFrame rate : 23.438 fps (1024 spf) \r\nCompression mode : Lossy \r\nDelay relative to video : 31ms \r\nStream size : 59.9 MiB (17%) \r\nLanguage : English \r\nDefault : Yes \r\nForced : No","torrent":{"xt":"urn:btih:ca1fe51ae6d87dd5394405bc0c964cb3461450c7","amp;dn":"%E2%80%8BThe+X-Files+S07+Season+7+720p+5.1Ch+BluRay+ReEnc-DeeJayAhmed","amp;tr":["udp%3A%2F%2Ftracker.leechers-paradise.org%3A6969","udp%3A%2F%2Fzer0day.ch%3A1337","udp%3A%2F%2Fopen.demonii.com%3A1337","udp%3A%2F%2Ftracker.coppersurfer.tk%3A6969","udp%3A%2F%2Fexodus.desync.com%3A6969"],"infoHash":"ca1fe51ae6d87dd5394405bc0c964cb3461450c7","infoHashBuffer":{"type":"Buffer","data":[202,31,229,26,230,216,125,213,57,68,5,188,12,150,76,179,70,20,80,199]},"announce":[],"urlList":[]}}